<?xml version="1.0" encoding="UTF-8"?>
<svg width="24" height="24" version="1.1" viewBox="-10 0 24 24" xmlns="http://www.w3.org/2000/svg">
 <path d="m-6.7375 0.35q1.1962 0 2.0544 0.85815 0.85815 0.85815 0.85815 2.0544t-0.85815 2.0544q-0.85815 0.85815-2.0544 0.85815t-2.0544-0.85815q-0.85815-0.85815-0.85815-2.0544t0.85815-2.0544q0.85815-0.85815 2.0544-0.85815zm8.7375 0q1.1962 0 2.0544 0.85815 0.85815 0.85815 0.85815 2.0544t-0.85815 2.0544q-0.85815 0.85815-2.0544 0.85815t-2.0544-0.85815q-0.85815-0.85815-0.85815-2.0544t0.85815-2.0544q0.85815-0.85815 2.0544-0.85815zm8.7375 5.825q-1.1962 0-2.0544-0.85815-0.85815-0.85815-0.85815-2.0544t0.85815-2.0544q0.85815-0.85815 2.0544-0.85815t2.0544 0.85815q0.85815 0.85815 0.85815 2.0544t-0.85815 2.0544q-0.85815 0.85815-2.0544 0.85815zm-17.475 3.0165q1.1962 0 2.0544 0.85815 0.85815 0.85815 0.85815 2.0544t-0.85815 2.0544q-0.85815 0.85815-2.0544 0.85815t-2.0544-0.85815q-0.85815-0.85815-0.85815-2.0544t0.85815-2.0544q0.85815-0.85815 2.0544-0.85815zm8.7375 0q1.1962 0 2.0544 0.85815 0.85815 0.85815 0.85815 2.0544t-0.85815 2.0544q-0.85815 0.85815-2.0544 0.85815t-2.0544-0.85815q-0.85815-0.85815-0.85815-2.0544t0.85815-2.0544q0.85815-0.85815 2.0544-0.85815zm8.7375 0q1.1962 0 2.0544 0.85815 0.85815 0.85815 0.85815 2.0544t-0.85815 2.0544q-0.85815 0.85815-2.0544 0.85815t-2.0544-0.85815q-0.85815-0.85815-0.85815-2.0544t0.85815-2.0544q0.85815-0.85815 2.0544-0.85815zm-17.475 8.6335q1.1962 0 2.0544 0.85815 0.85815 0.85815 0.85815 2.0544t-0.85815 2.0544q-0.85815 0.85815-2.0544 0.85815t-2.0544-0.85815q-0.85815-0.85815-0.85815-2.0544t0.85815-2.0544q0.85815-0.85815 2.0544-0.85815zm8.7375 0q1.1962 0 2.0544 0.85815 0.85815 0.85815 0.85815 2.0544t-0.85815 2.0544q-0.85815 0.85815-2.0544 0.85815t-2.0544-0.85815q-0.85815-0.85815-0.85815-2.0544t0.85815-2.0544q0.85815-0.85815 2.0544-0.85815zm8.7375 0q1.1962 0 2.0544 0.85815 0.85815 0.85815 0.85815 2.0544t-0.85815 2.0544q-0.85815 0.85815-2.0544 0.85815t-2.0544-0.85815q-0.85815-0.85815-0.85815-2.0544t0.85815-2.0544q0.85815-0.85815 2.0544-0.85815z" fill="currentColor" stroke-width=".052009"/>
</svg>
